<svg width="213" height="89" viewBox="0 0 213 89" fill="none" xmlns="http://www.w3.org/2000/svg">
<g filter="url(#filter0_d_2793_554)">
<path d="M0.0720001 42.576C0.0720001 30.48 3.208 20.624 9.48 13.008C16.136 4.752 25.256 0.623995 36.84 0.623995C45.224 0.623995 51.528 2.672 55.752 6.768C59.976 10.8 62.088 17.104 62.088 25.68C62.088 38.736 58.76 49.072 52.104 56.688C45.512 64.176 36.68 67.92 25.608 67.92C16.968 67.92 10.536 65.776 6.312 61.488C2.152 57.136 0.0720001 50.832 0.0720001 42.576ZM25.32 22.704C22.44 34.224 21 44.528 21 53.616C21 55.792 21.352 57.584 22.056 58.992C22.824 60.4 24.168 61.104 26.088 61.104C28.072 61.104 29.672 60.656 30.888 59.76C32.104 58.8 33.192 57.264 34.152 55.152C35.688 51.696 37.16 46.32 38.568 39.024C40.04 31.664 40.84 26.48 40.968 23.472C41.096 20.4 41.16 17.712 41.16 15.408C41.16 13.104 40.808 11.216 40.104 9.744C39.4 8.272 38.088 7.536 36.168 7.536C34.312 7.536 32.744 8.112 31.464 9.264C29.096 11.44 27.048 15.92 25.32 22.704ZM111.524 59.472C108.836 62.16 105.636 64.24 101.924 65.712C98.2763 67.184 94.6283 67.92 90.9803 67.92C87.3323 67.92 84.8683 67.6 83.5883 66.96L80.6123 83.28L61.1242 85.2L74.3723 17.04L90.0203 15.408L88.7723 22.032C91.4603 17.488 95.5883 15.216 101.156 15.216C107.428 15.216 112.228 17.232 115.556 21.264C118.5 24.912 119.972 29.52 119.972 35.088C119.972 40.656 119.236 45.424 117.764 49.392C116.292 53.36 114.212 56.72 111.524 59.472ZM84.7403 60.624C86.0843 61.776 87.5883 62.352 89.2523 62.352C90.9163 62.352 92.2283 62.032 93.1883 61.392C94.1483 60.752 94.9803 59.792 95.6843 58.512C97.6043 55.056 99.3323 48.08 100.868 37.584C101.316 34.512 101.54 31.472 101.54 28.464C101.54 25.456 101.188 23.472 100.484 22.512C99.8443 21.552 98.8843 21.072 97.6043 21.072C93.7003 21.072 91.1083 24.88 89.8282 32.496L84.7403 60.624ZM129.885 63.12C128.413 61.456 127.325 59.312 126.621 56.688C125.981 54.064 125.661 50.608 125.661 46.32C125.661 42.032 126.397 37.936 127.869 34.032C129.341 30.128 131.421 26.768 134.109 23.952C139.613 18.064 146.909 15.12 155.997 15.12C159.261 15.12 162.077 15.664 164.445 16.752L180.861 15.12L173.757 52.56C173.565 53.328 173.469 54.416 173.469 55.824C173.469 57.232 173.885 58.384 174.717 59.28C175.613 60.176 176.701 60.688 177.981 60.816C177.341 62.992 175.837 64.72 173.469 66C171.165 67.28 168.701 67.92 166.077 67.92C163.453 67.92 161.245 67.408 159.453 66.384C157.725 65.424 156.605 64.112 156.093 62.448C155.069 64.048 153.469 65.36 151.293 66.384C149.117 67.408 146.557 67.92 143.613 67.92C140.733 67.92 138.109 67.536 135.741 66.768C133.373 66 131.421 64.784 129.885 63.12ZM150.141 24.144C149.437 25.296 148.765 26.864 148.125 28.848C147.485 30.768 146.621 34.352 145.533 39.6C144.509 44.784 143.997 49.232 143.997 52.944C143.997 56.656 144.285 59.056 144.861 60.144C145.437 61.232 146.237 61.776 147.261 61.776C149.309 61.776 151.069 60.816 152.541 58.896C154.077 56.912 155.133 54.192 155.709 50.736L160.797 22.608C159.453 21.456 157.981 20.88 156.381 20.88C154.845 20.88 153.597 21.136 152.637 21.648C151.741 22.16 150.909 22.992 150.141 24.144ZM183.446 60.336C183.446 57.904 184.342 56.048 186.134 54.768C187.99 53.424 190.262 52.752 192.95 52.752C195.638 52.752 197.814 53.424 199.478 54.768C201.206 56.048 202.07 57.904 202.07 60.336C202.07 62.768 201.11 64.656 199.19 66C197.334 67.344 195.062 68.016 192.374 68.016C189.686 68.016 187.51 67.344 185.846 66C184.246 64.656 183.446 62.768 183.446 60.336ZM188.63 42.288C188.63 41.84 188.694 41.296 188.822 40.656L196.31 2.064C198.678 1.168 201.27 0.719999 204.086 0.719999C206.902 0.719999 209.046 1.616 210.518 3.408C211.99 5.2 212.726 7.44 212.726 10.128C212.726 12.752 212.214 15.568 211.19 18.576C210.166 21.52 209.014 24.496 207.734 27.504C206.518 30.512 205.366 33.584 204.278 36.72C203.254 39.792 202.71 42.96 202.646 46.224C201.174 47.888 199.158 48.72 196.598 48.72C194.038 48.72 192.054 48.144 190.646 46.992C189.302 45.776 188.63 44.208 188.63 42.288Z" fill="#5A5A5A"/>
</g>
<defs>
<filter id="filter0_d_2793_554" x="0.0720215" y="0.624023" width="212.654" height="87.5759" filterUnits="userSpaceOnUse" color-interpolation-filters="sRGB">
<feFlood flood-opacity="0" result="BackgroundImageFix"/>
<feColorMatrix in="SourceAlpha" type="matrix" values="0 0 0 0 0 0 0 0 0 0 0 0 0 0 0 0 0 0 127 0" result="hardAlpha"/>
<feOffset dy="3"/>
<feComposite in2="hardAlpha" operator="out"/>
<feColorMatrix type="matrix" values="0 0 0 0 1 0 0 0 0 0.811765 0 0 0 0 0.141176 0 0 0 1 0"/>
<feBlend mode="normal" in2="BackgroundImageFix" result="effect1_dropShadow_2793_554"/>
<feBlend mode="normal" in="SourceGraphic" in2="effect1_dropShadow_2793_554" result="shape"/>
</filter>
</defs>
</svg>
